<?xml version="1.0" encoding="UTF-8" standalone="no"?>
<!-- Created with Inkscape (http://www.inkscape.org/) -->

<svg
   width="52.168789mm"
   height="47.07304mm"
   viewBox="0 0 52.168789 47.07304"
   version="1.1"
   id="svg1"
   inkscape:version="1.3.2 (091e20e, 2023-11-25, custom)"
   sodipodi:docname="mayatnik.svg"
   xmlns:inkscape="http://www.inkscape.org/namespaces/inkscape"
   xmlns:sodipodi="http://sodipodi.sourceforge.net/DTD/sodipodi-0.dtd"
   xmlns="http://www.w3.org/2000/svg"
   xmlns:svg="http://www.w3.org/2000/svg">
  <sodipodi:namedview
     id="namedview1"
     pagecolor="#ffffff"
     bordercolor="#000000"
     borderopacity="0.25"
     inkscape:showpageshadow="2"
     inkscape:pageopacity="0.0"
     inkscape:pagecheckerboard="0"
     inkscape:deskcolor="#d1d1d1"
     inkscape:document-units="mm"
     inkscape:zoom="2.768771"
     inkscape:cx="109.25425"
     inkscape:cy="81.082905"
     inkscape:window-width="1920"
     inkscape:window-height="991"
     inkscape:window-x="-9"
     inkscape:window-y="-9"
     inkscape:window-maximized="1"
     inkscape:current-layer="g88" />
  <defs
     id="defs1" />
  <g
     inkscape:label="Слой 1"
     inkscape:groupmode="layer"
     id="layer1"
     transform="translate(-88.900002,-66.939583)">
    <g
       id="g88"
       transform="matrix(0.26458333,0,0,0.26458333,-78.23306,-7.3509557)">
      <line
         style="fill:none;stroke:#8cedf6;stroke-width:3.3148;stroke-linecap:round;stroke-miterlimit:10;stroke-opacity:1"
         x1="797.07098"
         y1="370.73401"
         x2="762.90198"
         y2="294.42899"
         id="line69" />
      <path
         style="fill:#8d46f6;stroke:#7121ea;stroke-width:3.3148;stroke-linecap:round;stroke-miterlimit:10;stroke-opacity:1;fill-opacity:1"
         d="m 793.637,378.254 c 0,-6.115 4.957,-11.074 11.073,-11.074 6.115,0 11.073,4.959 11.073,11.074 0,6.115 -4.958,11.073 -11.073,11.073 -6.116,0 -11.073,-4.958 -11.073,-11.073 z"
         id="path69" />
      <g
         style="opacity:0.2"
         id="g70">
        <line
           style="fill:none;stroke:#ccd6e5;stroke-width:3.3148;stroke-linecap:round;stroke-miterlimit:10"
           x1="814.72699"
           y1="366.83499"
           x2="762.90198"
           y2="294.42899"
           id="line70" />
        <path
           style="fill:#6e627f;stroke:#6e627f;stroke-width:3.3148;stroke-linecap:round;stroke-miterlimit:10"
           d="m 805.054,368.569 c 0,-6.116 4.957,-11.074 11.073,-11.074 6.116,0 11.073,4.958 11.073,11.074 0,6.115 -4.957,11.073 -11.073,11.073 -6.116,0 -11.073,-4.958 -11.073,-11.073 z"
           id="path70" />
      </g>
      <line
         style="fill:none;stroke:#8cedf6;stroke-width:3.3148;stroke-linecap:round;stroke-miterlimit:10;stroke-opacity:1"
         x1="696.62097"
         y1="396.34799"
         x2="696.62097"
         y2="294.42899"
         id="line71" />
      <line
         style="fill:none;stroke:#8cedf6;stroke-width:3.3148;stroke-linecap:round;stroke-miterlimit:10;stroke-opacity:1"
         x1="718.71899"
         y1="396.34799"
         x2="718.71899"
         y2="294.42899"
         id="line72" />
      <line
         style="fill:none;stroke:#8cedf6;stroke-width:3.3148;stroke-linecap:round;stroke-miterlimit:10;stroke-opacity:1"
         x1="740.81799"
         y1="396.34799"
         x2="740.81799"
         y2="294.42899"
         id="line73" />
      <line
         style="fill:none;stroke:#8cedf6;stroke-width:3.3148;stroke-linecap:round;stroke-miterlimit:10;stroke-opacity:1"
         x1="674.521"
         y1="396.34799"
         x2="674.521"
         y2="294.42899"
         id="line74" />
      <g
         id="g74">
        <path
           style="fill:none;stroke:#abbad8;stroke-width:6.6297;stroke-linecap:round;stroke-miterlimit:10"
           d="M 652.567,436.858 V 306.603 c 0,-9.115 7.458,-16.574 16.574,-16.574 h 95.826 c 9.116,0 16.574,7.459 16.574,16.574 v 130.255"
           id="path74" />
      </g>
      <rect
         x="631.68402"
         y="435.38501"
         style="fill:#f4b77f"
         width="170.74001"
         height="23.311001"
         id="rect74" />
      <rect
         x="631.68402"
         y="452.974"
         style="opacity:0.2;fill:#484c71"
         width="170.74001"
         height="5.723"
         id="rect75" />
      <g
         id="g79">
        <line
           style="fill:none;stroke:#abbad8;stroke-width:6.6297;stroke-linecap:round;stroke-miterlimit:10"
           x1="674.14301"
           y1="284.09799"
           x2="674.14301"
           y2="295.754"
           id="line75" />
        <line
           style="fill:none;stroke:#abbad8;stroke-width:6.6297;stroke-linecap:round;stroke-miterlimit:10"
           x1="696.33197"
           y1="284.09799"
           x2="696.33197"
           y2="295.754"
           id="line76" />
        <line
           style="fill:none;stroke:#abbad8;stroke-width:6.6297;stroke-linecap:round;stroke-miterlimit:10"
           x1="718.52197"
           y1="284.09799"
           x2="718.52197"
           y2="295.754"
           id="line77" />
        <line
           style="fill:none;stroke:#abbad8;stroke-width:6.6297;stroke-linecap:round;stroke-miterlimit:10"
           x1="740.71301"
           y1="284.09799"
           x2="740.71301"
           y2="295.754"
           id="line78" />
        <line
           style="fill:none;stroke:#abbad8;stroke-width:6.6297;stroke-linecap:round;stroke-miterlimit:10"
           x1="762.90198"
           y1="284.09799"
           x2="762.90198"
           y2="295.754"
           id="line79" />
      </g>
      <path
         style="fill:#8d46f6;stroke:#7121ea;stroke-width:3.3148;stroke-linecap:round;stroke-miterlimit:10;stroke-opacity:1;fill-opacity:1"
         d="m 662.98,396.986 c 0,-6.116 4.958,-11.075 11.073,-11.075 6.115,0 11.074,4.958 11.074,11.075 0,6.116 -4.959,11.074 -11.074,11.074 -6.115,0 -11.073,-4.958 -11.073,-11.074 z"
         id="path79" />
      <path
         style="fill:#8d46f6;stroke:#7121ea;stroke-width:3.3148;stroke-linecap:round;stroke-miterlimit:10;stroke-opacity:1;fill-opacity:1"
         d="m 685.161,396.986 c 0,-6.116 4.958,-11.075 11.073,-11.075 6.115,0 11.074,4.958 11.074,11.075 0,6.116 -4.959,11.074 -11.074,11.074 -6.115,0 -11.073,-4.958 -11.073,-11.074 z"
         id="path80" />
      <path
         style="fill:#8d46f6;stroke:#7121ea;stroke-width:3.3148;stroke-linecap:round;stroke-miterlimit:10;stroke-opacity:1;fill-opacity:1"
         d="m 707.26,396.986 c 0,-6.116 4.957,-11.075 11.074,-11.075 6.115,0 11.072,4.958 11.072,11.075 0,6.116 -4.957,11.074 -11.072,11.074 -6.117,0 -11.074,-4.958 -11.074,-11.074 z"
         id="path81" />
      <path
         style="fill:#8d46f6;stroke:#7121ea;stroke-width:3.3148;stroke-linecap:round;stroke-miterlimit:10;stroke-opacity:1;fill-opacity:1"
         d="m 729.525,396.986 c 0,-6.116 4.957,-11.075 11.073,-11.075 6.116,0 11.073,4.958 11.073,11.075 0,6.116 -4.957,11.074 -11.073,11.074 -6.116,0 -11.073,-4.958 -11.073,-11.074 z"
         id="path82" />
      <g
         id="g83">
        <path
           style="fill:#ffffff"
           d="m 670.715,394.775 c -1.589,0 -2.882,-1.293 -2.882,-2.884 0,-1.59 1.293,-2.883 2.882,-2.883 1.59,0 2.884,1.293 2.884,2.883 0,1.591 -1.294,2.884 -2.884,2.884 z"
           id="path83" />
      </g>
      <g
         id="g84">
        <path
           style="fill:#ffffff"
           d="m 799.954,377.706 c -1.59,0 -2.883,-1.292 -2.883,-2.883 0,-1.59 1.293,-2.884 2.883,-2.884 1.59,0 2.884,1.294 2.884,2.884 0,1.591 -1.294,2.883 -2.884,2.883 z"
           id="path84" />
      </g>
      <g
         id="g85">
        <path
           style="fill:#ffffff"
           d="m 694.286,394.775 c -1.589,0 -2.881,-1.293 -2.881,-2.884 0,-1.59 1.292,-2.883 2.881,-2.883 1.591,0 2.885,1.293 2.885,2.883 0,1.591 -1.294,2.884 -2.885,2.884 z"
           id="path85" />
      </g>
      <g
         id="g86">
        <path
           style="fill:#ffffff"
           d="m 715.948,394.775 c -1.59,0 -2.883,-1.293 -2.883,-2.884 0,-1.59 1.293,-2.883 2.883,-2.883 1.59,0 2.884,1.293 2.884,2.883 0,1.591 -1.294,2.884 -2.884,2.884 z"
           id="path86" />
      </g>
      <g
         id="g87">
        <path
           style="fill:#ffffff"
           d="m 738.117,394.775 c -1.59,0 -2.883,-1.293 -2.883,-2.884 0,-1.59 1.293,-2.883 2.883,-2.883 1.59,0 2.883,1.293 2.883,2.883 0,1.591 -1.293,2.884 -2.883,2.884 z"
           id="path87" />
      </g>
    </g>
  </g>
</svg>
