<?xml version="1.0" encoding="UTF-8" standalone="no"?>
<!-- Created with Inkscape (http://www.inkscape.org/) -->

<svg
   width="62.526596mm"
   height="41.493015mm"
   viewBox="0 0 62.526596 41.493015"
   version="1.1"
   id="svg1"
   inkscape:version="1.3.2 (091e20e, 2023-11-25, custom)"
   sodipodi:docname="oscilograf.svg"
   xmlns:inkscape="http://www.inkscape.org/namespaces/inkscape"
   xmlns:sodipodi="http://sodipodi.sourceforge.net/DTD/sodipodi-0.dtd"
   xmlns="http://www.w3.org/2000/svg"
   xmlns:svg="http://www.w3.org/2000/svg">
  <sodipodi:namedview
     id="namedview1"
     pagecolor="#ffffff"
     bordercolor="#000000"
     borderopacity="0.25"
     inkscape:showpageshadow="2"
     inkscape:pageopacity="0.0"
     inkscape:pagecheckerboard="0"
     inkscape:deskcolor="#d1d1d1"
     inkscape:document-units="mm"
     inkscape:zoom="2.768771"
     inkscape:cx="108.89308"
     inkscape:cy="50.383364"
     inkscape:window-width="1920"
     inkscape:window-height="991"
     inkscape:window-x="-9"
     inkscape:window-y="-9"
     inkscape:window-maximized="1"
     inkscape:current-layer="g181" />
  <defs
     id="defs1" />
  <g
     inkscape:label="Слой 1"
     inkscape:groupmode="layer"
     id="layer1"
     transform="translate(-76.199998,-128.58749)">
    <g
       id="g182"
       transform="matrix(0.26458333,0,0,0.26458333,14.547056,-10.09915)">
      <rect
         x="233.019"
         y="587.55298"
         style="fill:#8f8da0"
         width="236.321"
         height="15.314"
         id="rect88" />
      <g
         id="g181">
        <g
           id="g91">
          <g
             id="g90">
            <g
               id="g89">
              <path
                 style="fill:#4a464f"
                 d="m 246.158,584.708 209.964,0.01 v 1.304 69.935 c 0,8.229 -6.692,14.922 -14.92,14.922 l -180.12,-0.01 c -8.229,0 -14.924,-6.695 -14.924,-14.925 v -69.935 -1.301 m -1.351,-10.115 c -4.819,0 -8.764,3.942 -8.764,8.763 v 2.653 3.585 -3.585 69.935 c 0,13.773 11.268,25.04 25.039,25.04 l 180.119,0.01 c 10e-4,0 0.003,0 0.004,0 13.769,0 25.032,-11.267 25.032,-25.037 v -69.935 3.584 -6.238 c 0,-4.82 -3.944,-8.765 -8.762,-8.765 z"
                 id="path88" />
            </g>
          </g>
        </g>
        <g
           id="g93">
          <g
             id="g92">
            <path
               style="fill:#8d46f6;fill-opacity:1"
               d="m 254.064,667.81 c -2.645,0 -4.797,-2.151 -4.797,-4.797 V 547.069 c 0,-10.852 8.829,-19.681 19.681,-19.681 h 164.727 c 10.852,0 19.681,8.828 19.681,19.681 v 115.943 c 0,2.646 -2.151,4.797 -4.797,4.797 H 254.064 Z"
               id="path91" />
            <path
               style="fill:#8f8da0"
               d="m 433.675,530.606 c 9.078,0 16.463,7.386 16.463,16.463 v 62.275 47.963 5.706 c 0,0.856 -0.723,1.579 -1.579,1.579 H 254.064 c -0.856,0 -1.579,-0.724 -1.579,-1.579 v -5.706 -47.963 -62.275 c 0,-9.077 7.385,-16.463 16.463,-16.463 h 164.727 m 0,-6.436 H 268.948 c -12.595,0 -22.899,10.305 -22.899,22.899 v 62.275 47.963 5.706 c 0,4.407 3.607,8.016 8.016,8.016 h 194.494 c 4.408,0 8.016,-3.608 8.016,-8.016 v -5.706 -47.963 -62.275 c -10e-4,-12.594 -10.305,-22.899 -22.9,-22.899 z"
               id="path92" />
          </g>
        </g>
        <g
           style="opacity:0.6"
           id="g96">
          <g
             id="g95">
            <g
               id="g94">
              <path
                 style="fill:#2b2a33"
                 d="m 273.254,614.583 c -4.286,0 -7.773,-3.487 -7.773,-7.773 v -54.782 c 0,-4.577 2.818,-7.773 6.854,-7.773 h 84.25 c 4.286,0 7.773,3.486 7.773,7.773 v 54.783 c 0,4.286 -3.487,7.772 -7.773,7.772 z"
                 id="path93" />
              <path
                 style="fill:#2b2a33"
                 d="m 356.584,546.553 c 3.018,0 5.475,2.455 5.475,5.474 v 54.783 c 0,3.019 -2.456,5.474 -5.475,5.474 l -83.33,10e-4 c -3.018,0 -5.475,-2.455 -5.475,-5.475 v -54.782 c 0,-3.019 1.537,-5.475 4.555,-5.475 h 84.25 m 0,-4.598 h -84.25 c -5.303,0 -9.152,4.236 -9.152,10.072 v 54.782 c 0,5.554 4.519,10.072 10.072,10.072 l 83.33,-10e-4 c 5.554,0 10.072,-4.518 10.072,-10.071 v -54.783 c 0,-5.553 -4.518,-10.071 -10.072,-10.071 z"
                 id="path94" />
            </g>
          </g>
        </g>
        <g
           style="opacity:0.7"
           id="g99">
          <g
             id="g98">
            <g
               id="g97">
              <path
                 style="fill:#cccccc"
                 d="m 273.254,620.102 c -4.286,0 -7.773,-3.487 -7.773,-7.775 v -54.783 c 0,-4.576 2.818,-7.772 6.854,-7.772 h 84.25 c 4.286,0 7.773,3.486 7.773,7.772 v 54.784 c 0,4.286 -3.487,7.773 -7.773,7.773 z"
                 id="path96" />
              <path
                 style="fill:#cccccc"
                 d="m 356.584,552.07 c 3.018,0 5.475,2.455 5.475,5.473 v 54.784 c 0,3.019 -2.456,5.474 -5.475,5.474 l -83.33,0.002 c -3.018,0 -5.475,-2.455 -5.475,-5.476 v -54.783 c 0,-3.018 1.537,-5.474 4.555,-5.474 h 84.25 m 0,-4.597 h -84.25 c -5.303,0 -9.152,4.235 -9.152,10.071 v 54.783 c 0,5.555 4.519,10.073 10.072,10.073 l 83.33,-0.002 c 5.554,0 10.072,-4.517 10.072,-10.071 v -54.784 c 0,-5.553 -4.518,-10.07 -10.072,-10.07 z"
                 id="path97" />
            </g>
          </g>
        </g>
        <g
           id="g101">
          <g
             id="g100">
            <path
               style="fill:#2b2a33"
               d="m 273.164,615.963 c -4.285,0 -7.773,-3.486 -7.773,-7.773 v -54.783 c 0,-4.285 3.488,-7.773 7.773,-7.773 l 84.249,-10e-4 c 4.286,0 7.774,3.486 7.774,7.773 v 54.783 c 0,4.285 -3.488,7.773 -7.774,7.773 h -84.249 z"
               id="path99" />
          </g>
        </g>
        <g
           id="g102">
          <path
             style="opacity:0.3;fill:none;stroke:#7121ea;stroke-width:7.3563;stroke-linejoin:round;stroke-miterlimit:10;stroke-opacity:1"
             d="m 269.617,566.398 c 1.285,-0.838 1.822,-0.397 3.477,-0.397 13.236,0 1.204,30.627 19.254,30.627 18.05,0 5.179,-30.627 23.347,-30.627 18.167,0 3.392,30.627 20.104,30.627 7.09782,-4.2e-4 8.89142,-5.52438 9.87559,-11.88024 1.33323,-8.61006 1.18105,-18.74676 10.71741,-18.74676 2.718,0 2.718,0 5.576,0.397"
             id="path101"
             sodipodi:nodetypes="cssscssc" />
          <path
             style="fill:none;stroke:#7121ea;stroke-width:3.2077;stroke-linejoin:round;stroke-miterlimit:10;stroke-opacity:1"
             d="m 269.617,566.398 c 1.285,-0.838 1.822,-0.397 3.477,-0.397 13.236,0 1.204,30.627 19.254,30.627 18.05,0 5.179,-30.627 23.347,-30.627 18.167,0 3.392,30.627 20.104,30.627 16.713,-0.001 4.017,-30.627 20.593,-30.627 2.718,0 2.718,0 5.576,0.397"
             id="path102" />
        </g>
        <g
           style="opacity:0.2"
           id="g107">
          <line
             style="fill:none;stroke:#8cedf6;stroke-width:0.9195;stroke-linejoin:round;stroke-miterlimit:10;stroke-opacity:1"
             x1="277.371"
             y1="549.771"
             x2="277.371"
             y2="611.82501"
             id="line102" />
          <line
             style="fill:none;stroke:#8cedf6;stroke-width:0.9195;stroke-linejoin:round;stroke-miterlimit:10;stroke-opacity:1"
             x1="292.63501"
             y1="549.771"
             x2="292.63501"
             y2="611.82501"
             id="line103" />
          <line
             style="fill:none;stroke:#8cedf6;stroke-width:0.9195;stroke-linejoin:round;stroke-miterlimit:10;stroke-opacity:1"
             x1="307.89899"
             y1="549.771"
             x2="307.89899"
             y2="611.82501"
             id="line104" />
          <line
             style="fill:none;stroke:#8cedf6;stroke-width:0.9195;stroke-linejoin:round;stroke-miterlimit:10;stroke-opacity:1"
             x1="323.164"
             y1="549.771"
             x2="323.164"
             y2="611.82501"
             id="line105" />
          <line
             style="fill:none;stroke:#8cedf6;stroke-width:0.9195;stroke-linejoin:round;stroke-miterlimit:10;stroke-opacity:1"
             x1="338.42801"
             y1="549.771"
             x2="338.42801"
             y2="611.82501"
             id="line106" />
          <line
             style="fill:none;stroke:#8cedf6;stroke-width:0.9195;stroke-linejoin:round;stroke-miterlimit:10;stroke-opacity:1"
             x1="353.69199"
             y1="549.771"
             x2="353.69199"
             y2="611.82501"
             id="line107" />
        </g>
        <g
           style="opacity:0.2"
           id="g112">
          <line
             style="fill:none;stroke:#91f2bf;stroke-width:1.0945;stroke-linejoin:round;stroke-miterlimit:10"
             x1="360.168"
             y1="549.77301"
             x2="269.03699"
             y2="549.80701"
             id="line108" />
          <line
             style="fill:none;stroke:#8cedf6;stroke-width:1.0945;stroke-linejoin:round;stroke-miterlimit:10;stroke-opacity:1"
             x1="360.168"
             y1="565.28601"
             x2="269.03699"
             y2="565.32001"
             id="line109" />
          <line
             style="fill:none;stroke:#8cedf6;stroke-width:1.0945;stroke-linejoin:round;stroke-miterlimit:10;stroke-opacity:1"
             x1="360.168"
             y1="580.79999"
             x2="269.03699"
             y2="580.83398"
             id="line110" />
          <line
             style="fill:none;stroke:#8cedf6;stroke-width:1.0945;stroke-linejoin:round;stroke-miterlimit:10;stroke-opacity:1"
             x1="360.168"
             y1="596.31299"
             x2="269.03699"
             y2="596.34802"
             id="line111" />
          <line
             style="fill:none;stroke:#8cedf6;stroke-width:1.0945;stroke-linejoin:round;stroke-miterlimit:10;stroke-opacity:1"
             x1="360.168"
             y1="611.82703"
             x2="269.03699"
             y2="611.86102"
             id="line112" />
        </g>
        <path
           style="opacity:0.1;fill:#ffffff"
           d="m 281.483,615.91 c 0.288,0.033 -8.615,0.053 -8.319,0.053 h 43.339 l 15.151,-70.33 -35.031,10e-4 z"
           id="path112" />
        <path
           style="fill:#262528"
           d="m 356.308,554.264 c 1.947,0 3.541,1.593 3.541,3.54 v 52.426 c 0,1.948 -1.594,3.54 -3.541,3.54 H 274.27 c -1.945,0 -3.539,-1.592 -3.539,-3.539 v -52.427 c 0,-1.946 1.594,-3.54 3.539,-3.54 h 82.038 m 0,-7.261 v 0 H 274.27 c -3.927,0 -7.121,3.196 -7.121,7.124 v 56.104 c 0,3.927 3.194,7.121 7.121,7.121 h 82.038 c 3.927,0 7.122,-3.195 7.122,-7.122 v -56.102 c 0,-3.929 -3.196,-7.125 -7.122,-7.125 z"
           id="path113" />
        <g
           id="g121">
          <g
             id="g116">
            <g
               id="g115">
              <path
                 style="fill:#3a383d"
                 d="m 394.639,642.104 c -2.962,0 -5.372,-2.409 -5.372,-5.371 0,-2.963 2.41,-5.373 5.372,-5.373 2.961,0 5.371,2.41 5.371,5.373 0,2.961 -2.41,5.371 -5.371,5.371 z"
                 id="path114" />
              <path
                 style="fill:#8cedf6;fill-opacity:1"
                 d="m 394.639,632.195 c 2.5,0 4.535,2.035 4.535,4.537 0,2.5 -2.034,4.535 -4.535,4.535 -2.501,0 -4.536,-2.035 -4.536,-4.535 0,-2.501 2.035,-4.537 4.536,-4.537 m 0,-1.672 c -3.428,0 -6.208,2.78 -6.208,6.209 0,3.427 2.78,6.207 6.208,6.207 3.428,0 6.207,-2.779 6.207,-6.207 0,-3.428 -2.78,-6.209 -6.207,-6.209 z"
                 id="path115" />
            </g>
          </g>
          <g
             id="g118">
            <g
               id="g117">
              <path
                 style="fill:#3a383d"
                 d="m 410.887,642.104 c -2.962,0 -5.372,-2.409 -5.372,-5.371 0,-2.963 2.41,-5.373 5.372,-5.373 2.961,0 5.371,2.41 5.371,5.373 0,2.961 -2.41,5.371 -5.371,5.371 z"
                 id="path116" />
              <path
                 style="fill:#8cedf6;fill-opacity:1"
                 d="m 410.887,632.195 c 2.5,0 4.535,2.035 4.535,4.537 0,2.5 -2.034,4.535 -4.535,4.535 -2.501,0 -4.536,-2.035 -4.536,-4.535 0,-2.501 2.035,-4.537 4.536,-4.537 m 0,-1.672 c -3.428,0 -6.208,2.78 -6.208,6.209 0,3.427 2.78,6.207 6.208,6.207 3.428,0 6.207,-2.779 6.207,-6.207 0,-3.428 -2.78,-6.209 -6.207,-6.209 z"
                 id="path117" />
            </g>
          </g>
          <g
             id="g120">
            <g
               id="g119">
              <path
                 style="fill:#3a383d"
                 d="m 427.264,642.104 c -2.962,0 -5.371,-2.409 -5.371,-5.371 0,-2.963 2.41,-5.373 5.371,-5.373 2.961,0 5.371,2.41 5.371,5.373 0,2.961 -2.41,5.371 -5.371,5.371 z"
                 id="path118" />
              <path
                 style="fill:#8cedf6;fill-opacity:1"
                 d="m 427.264,632.195 c 2.5,0 4.535,2.035 4.535,4.537 0,2.5 -2.034,4.535 -4.535,4.535 -2.501,0 -4.535,-2.035 -4.535,-4.535 0,-2.501 2.034,-4.537 4.535,-4.537 m 0,-1.672 c -3.427,0 -6.207,2.78 -6.207,6.209 0,3.427 2.78,6.207 6.207,6.207 3.428,0 6.207,-2.779 6.207,-6.207 0,-3.428 -2.78,-6.209 -6.207,-6.209 z"
                 id="path119" />
            </g>
          </g>
        </g>
        <g
           id="g127">
          <path
             style="opacity:0.4"
             d="m 282.503,631.281 c -4.872,0 -8.836,3.964 -8.836,8.836 0,4.873 3.964,8.836 8.836,8.836 4.873,0 8.838,-3.963 8.838,-8.834 0,-4.874 -3.965,-8.838 -8.838,-8.838 z"
             id="path121" />
          <path
             style="fill:#3a383d"
             d="m 288.781,636.445 v 0 l -0.004,-0.014 c -0.002,-0.01 -0.006,-0.017 -0.008,-0.027 l -1.244,-3.077 -12.018,-0.002 -1.194,3.085 c -10e-4,0.008 -0.005,0.014 -0.007,0.021 l -0.004,0.014 v 0 c -0.217,0.705 -0.334,1.453 -0.334,2.229 0,4.182 3.391,7.573 7.574,7.573 4.183,0 7.573,-3.391 7.573,-7.573 10e-4,-0.776 -0.117,-1.524 -0.334,-2.229 z"
             id="path122" />
          <path
             style="opacity:0.2;fill:#494874"
             d="m 288.781,636.445 -0.004,-0.014 c -0.002,-0.01 -0.006,-0.017 -0.008,-0.027 l -1.244,-3.077 h -5.982 v 12.921 c 4.183,0 7.573,-3.391 7.573,-7.573 0,-0.777 -0.118,-1.525 -0.335,-2.23 z"
             id="path123" />
          <g
             id="g126">
            <g
               id="g125">
              <path
                 style="fill:#8cedf6;fill-opacity:1"
                 d="m 281.543,640.813 c -3.032,0 -5.499,-2.467 -5.499,-5.498 0,-3.032 2.467,-5.5 5.499,-5.5 3.031,0 5.497,2.468 5.497,5.5 0,3.031 -2.466,5.498 -5.497,5.498 z"
                 id="path124" />
              <path
                 style="fill:#807f9e"
                 d="m 281.543,630.671 c 2.559,0 4.641,2.083 4.641,4.644 0,2.56 -2.082,4.642 -4.641,4.642 -2.56,0 -4.643,-2.082 -4.643,-4.642 0,-2.561 2.083,-4.644 4.643,-4.644 m 0,-1.712 c -3.51,0 -6.354,2.846 -6.354,6.356 0,3.508 2.845,6.354 6.354,6.354 3.508,0 6.353,-2.846 6.353,-6.354 0,-3.51 -2.845,-6.356 -6.353,-6.356 z"
                 id="path125" />
            </g>
          </g>
        </g>
        <g
           id="g133">
          <path
             style="opacity:0.4"
             d="m 313.19,631.281 c -4.872,0 -8.836,3.964 -8.836,8.836 0,4.873 3.964,8.836 8.836,8.836 4.873,0 8.838,-3.963 8.838,-8.834 0,-4.874 -3.964,-8.838 -8.838,-8.838 z"
             id="path127" />
          <path
             style="fill:#3a383d"
             d="m 319.469,636.445 h 0.002 l -0.006,-0.014 c -0.003,-0.01 -0.006,-0.017 -0.008,-0.027 l -1.244,-3.077 -12.018,-0.002 -1.193,3.085 c -0.002,0.008 -0.005,0.014 -0.008,0.021 l -0.004,0.014 v 0 c -0.217,0.705 -0.334,1.453 -0.334,2.229 0,4.182 3.391,7.573 7.574,7.573 4.183,0 7.573,-3.391 7.573,-7.573 10e-4,-0.776 -0.118,-1.524 -0.334,-2.229 z"
             id="path128" />
          <path
             style="opacity:0.2;fill:#494874"
             d="m 319.471,636.445 -0.006,-0.014 c -0.003,-0.01 -0.006,-0.017 -0.008,-0.027 l -1.244,-3.077 h -5.982 v 12.921 c 4.183,0 7.573,-3.391 7.573,-7.573 0,-0.776 -0.118,-1.524 -0.335,-2.229 h 0.002 z"
             id="path129" />
          <g
             id="g132">
            <g
               id="g131">
              <path
                 style="fill:#8cedf6;fill-opacity:1"
                 d="m 312.23,640.813 c -3.033,0 -5.5,-2.467 -5.5,-5.498 0,-3.032 2.467,-5.5 5.5,-5.5 3.031,0 5.497,2.468 5.497,5.5 0.001,3.031 -2.465,5.498 -5.497,5.498 z"
                 id="path130" />
              <path
                 style="fill:#807f9e"
                 d="m 312.23,630.671 c 2.56,0 4.642,2.083 4.642,4.644 0,2.56 -2.082,4.642 -4.642,4.642 -2.561,0 -4.644,-2.082 -4.644,-4.642 10e-4,-2.561 2.084,-4.644 4.644,-4.644 m 0,-1.712 c -3.51,0 -6.355,2.846 -6.355,6.356 0,3.508 2.846,6.354 6.355,6.354 3.508,0 6.354,-2.846 6.354,-6.354 0,-3.51 -2.846,-6.356 -6.354,-6.356 z"
                 id="path131" />
            </g>
          </g>
        </g>
        <path
           style="fill:#8f8da0"
           d="m 357.413,547.932 c 3.02,0 5.476,2.457 5.476,5.475 v 54.783 c 0,3.019 -2.456,5.475 -5.476,5.475 h -84.249 c -3.018,0 -5.474,-2.455 -5.474,-5.475 v -54.783 c 0,-3.018 2.456,-5.473 5.474,-5.473 l 84.249,-0.002 m 0,-4.598 v 0 h -84.249 c -5.553,0 -10.072,4.518 -10.072,10.072 v 54.783 c 0,5.556 4.52,10.074 10.072,10.074 l 84.249,-0.002 c 5.555,0 10.073,-4.518 10.073,-10.072 v -54.783 c 0,-5.554 -4.518,-10.072 -10.073,-10.072 z"
           id="path133" />
        <path
           style="fill:none;stroke:#2d2d35;stroke-width:1.0878;stroke-miterlimit:10;stroke-dasharray:2.1756"
           d="m 373.855,593.348 c 0,-5.74 4.653,-10.395 10.392,-10.395 5.737,0 10.392,4.654 10.392,10.395"
           id="path134" />
        <g
           id="g141">
          <path
             style="opacity:0.2"
             d="m 385.384,585.312 c -5.764,0 -10.452,4.69 -10.452,10.454 0,5.764 4.689,10.453 10.452,10.453 5.763,0 10.454,-4.688 10.454,-10.453 0,-5.764 -4.692,-10.454 -10.454,-10.454 z"
             id="path135" />
          <path
             style="fill:#494874"
             d="m 392.81,591.421 v 0 l -0.005,-0.015 c -0.003,-0.012 -0.007,-0.021 -0.01,-0.033 l -1.472,-3.641 -14.217,-10e-4 -1.412,3.65 c -0.002,0.008 -0.006,0.016 -0.008,0.023 l -0.006,0.017 h 10e-4 c -0.257,0.835 -0.395,1.722 -0.395,2.639 0,4.947 4.011,8.959 8.959,8.959 4.947,0 8.96,-4.011 8.96,-8.958 0.002,-0.918 -0.138,-1.805 -0.395,-2.64 z"
             id="path136" />
          <path
             style="opacity:0.2;fill:#494874"
             d="m 392.81,591.421 -0.005,-0.015 c -0.003,-0.012 -0.007,-0.021 -0.01,-0.033 l -1.472,-3.641 h -7.077 v 15.286 c 4.947,0 8.96,-4.011 8.96,-8.958 10e-4,-0.917 -0.139,-1.804 -0.396,-2.639 z"
             id="path137" />
          <g
             id="g140">
            <g
               id="g139">
              <path
                 style="fill:#8cedf6;fill-opacity:1"
                 d="m 384.247,596.586 c -3.586,0 -6.503,-2.917 -6.503,-6.502 0,-3.587 2.917,-6.505 6.503,-6.505 3.586,0 6.504,2.918 6.504,6.505 0,3.585 -2.918,6.502 -6.504,6.502 z"
                 id="path138" />
              <path
                 style="fill:#807f9e"
                 d="m 384.247,584.592 c 3.028,0 5.492,2.464 5.492,5.492 0,3.027 -2.463,5.49 -5.492,5.49 -3.027,0 -5.491,-2.463 -5.491,-5.49 0,-3.028 2.464,-5.492 5.491,-5.492 m 0,-2.026 c -4.151,0 -7.516,3.365 -7.516,7.518 0,4.15 3.364,7.515 7.516,7.515 4.15,0 7.517,-3.364 7.517,-7.515 0,-4.152 -3.367,-7.518 -7.517,-7.518 z"
                 id="path139" />
            </g>
          </g>
        </g>
        <path
           style="fill:none;stroke:#2d2d35;stroke-width:1.0878;stroke-miterlimit:10;stroke-dasharray:2.1756"
           d="m 373.855,560.986 c 0,-5.74 4.653,-10.394 10.392,-10.394 5.737,0 10.392,4.653 10.392,10.394"
           id="path141" />
        <g
           id="g148">
          <path
             style="opacity:0.2"
             d="m 385.384,552.951 c -5.764,0 -10.452,4.689 -10.452,10.453 0,5.765 4.689,10.453 10.452,10.453 5.763,0 10.454,-4.689 10.454,-10.452 0,-5.764 -4.692,-10.454 -10.454,-10.454 z"
             id="path142" />
          <path
             style="fill:#494874"
             d="m 392.81,559.06 v 0 l -0.005,-0.015 c -0.003,-0.013 -0.007,-0.023 -0.01,-0.034 l -1.472,-3.642 h -14.217 l -1.412,3.648 c -0.002,0.009 -0.006,0.017 -0.008,0.024 l -0.006,0.017 h 10e-4 c -0.257,0.833 -0.395,1.719 -0.395,2.639 0,4.946 4.011,8.959 8.959,8.959 4.947,0 8.96,-4.012 8.96,-8.959 0.002,-0.918 -0.138,-1.803 -0.395,-2.637 z"
             id="path143" />
          <path
             style="opacity:0.2;fill:#494874"
             d="m 392.81,559.06 -0.005,-0.015 c -0.003,-0.013 -0.007,-0.023 -0.01,-0.034 l -1.472,-3.642 h -7.077 v 15.288 c 4.947,0 8.96,-4.012 8.96,-8.959 10e-4,-0.919 -0.139,-1.804 -0.396,-2.638 z"
             id="path144" />
          <g
             id="g147">
            <g
               id="g146">
              <path
                 style="fill:#8cedf6;fill-opacity:1"
                 d="m 384.247,564.226 c -3.586,0 -6.503,-2.917 -6.503,-6.503 0,-3.588 2.917,-6.506 6.503,-6.506 3.586,0 6.504,2.918 6.504,6.506 0,3.586 -2.918,6.503 -6.504,6.503 z"
                 id="path145" />
              <path
                 style="fill:#807f9e"
                 d="m 384.247,552.229 c 3.028,0 5.492,2.465 5.492,5.494 0,3.027 -2.463,5.49 -5.492,5.49 -3.027,0 -5.491,-2.463 -5.491,-5.49 0,-3.03 2.464,-5.494 5.491,-5.494 m 0,-2.025 c -4.151,0 -7.516,3.366 -7.516,7.519 0,4.15 3.364,7.516 7.516,7.516 4.15,0 7.517,-3.365 7.517,-7.516 0,-4.153 -3.367,-7.519 -7.517,-7.519 z"
                 id="path146" />
            </g>
          </g>
        </g>
        <path
           style="fill:none;stroke:#2d2d35;stroke-width:2.1756;stroke-miterlimit:10;stroke-dasharray:2.1756"
           d="m 409.215,560.404 c 0,-8.926 7.235,-16.163 16.158,-16.163 8.925,0 16.16,7.237 16.16,16.163"
           id="path148" />
        <g
           id="g156">
          <path
             style="opacity:0.2"
             d="m 427.141,547.909 c -8.962,0 -16.255,7.292 -16.255,16.257 0,8.965 7.293,16.257 16.255,16.257 8.965,0 16.258,-7.292 16.258,-16.255 -10e-4,-8.965 -7.294,-16.258 -16.258,-16.259 z"
             id="path149" />
          <path
             style="fill:#3a383d"
             d="m 438.69,557.41 v 0 l -0.007,-0.023 c -0.005,-0.018 -0.012,-0.033 -0.017,-0.051 l -2.287,-5.664 h -22.107 l -2.196,5.676 c -0.003,0.011 -0.009,0.023 -0.014,0.037 l -0.008,0.025 h 0.001 c -0.399,1.296 -0.614,2.674 -0.614,4.102 0,7.694 6.237,13.935 13.932,13.935 7.695,0 13.933,-6.24 13.933,-13.933 0,-1.43 -0.216,-2.807 -0.616,-4.104 z"
             id="path150" />
          <path
             style="opacity:0.2;fill:#494874"
             d="m 438.691,557.41 -0.008,-0.023 c -0.005,-0.018 -0.012,-0.033 -0.017,-0.051 l -2.287,-5.664 h -11.007 v 23.775 c 7.695,0 13.933,-6.24 13.933,-13.933 10e-4,-1.43 -0.215,-2.807 -0.614,-4.104 z"
             id="path151" />
          <g
             id="g155">
            <g
               id="g154">
              <path
                 style="fill:#8cedf6;fill-opacity:1"
                 d="m 425.373,565.431 c -5.57,0 -10.101,-4.531 -10.101,-10.101 0,-5.571 4.531,-10.104 10.101,-10.104 5.57,0 10.102,4.533 10.102,10.104 0,5.569 -4.532,10.101 -10.102,10.101 z"
                 id="path152" />
              <g
                 id="g153">
                <path
                   style="fill:#3a383d"
                   d="m 425.373,546.813 c 4.695,0 8.515,3.82 8.515,8.517 0,4.694 -3.819,8.513 -8.515,8.513 -4.694,0 -8.514,-3.818 -8.514,-8.513 0,-4.696 3.82,-8.517 8.514,-8.517 m 0,-3.174 c -6.455,0 -11.688,5.234 -11.688,11.691 0,6.455 5.233,11.688 11.688,11.688 6.455,0 11.69,-5.232 11.69,-11.688 0,-6.457 -5.235,-11.691 -11.69,-11.691 z"
                   id="path153" />
              </g>
            </g>
          </g>
        </g>
        <line
           style="fill:#d3d3ea;stroke:#3a383d;stroke-width:2.6836;stroke-linecap:round;stroke-miterlimit:10"
           x1="341.586"
           y1="632.19897"
           x2="366.71899"
           y2="632.19897"
           id="line156" />
        <g
           id="g158">
          <g
             style="opacity:0.4"
             id="g157">
            <path
               d="m 351.311,635.102 c 0,0.896 -0.733,1.63 -1.63,1.629 h -3.668 c -0.897,-10e-4 -1.63,-0.734 -1.63,-1.631 v -2.978 c 0,-0.896 0.733,-1.63 1.63,-1.63 l 3.668,0.002 c 0.897,0 1.63,0.733 1.63,1.63 z"
               id="path156" />
          </g>
        </g>
        <g
           id="g160">
          <g
             id="g159">
            <path
               style="fill:#8cedf6;fill-opacity:1"
               d="m 345.198,634.341 c -0.897,0 -1.628,-0.73 -1.628,-1.628 v -1.303 c 0,-0.898 0.73,-1.628 1.628,-1.628 l 2.54,0.002 c 0.897,0 1.627,0.73 1.627,1.628 v 1.301 c 0,0.898 -0.73,1.628 -1.628,1.628 z"
               id="path158" />
            <path
               style="fill:#575659"
               d="m 345.198,630.49 2.539,0.002 c 0.506,0 0.919,0.414 0.919,0.92 v 1.301 c 0,0.506 -0.414,0.92 -0.919,0.92 h -2.539 c -0.506,0 -0.919,-0.414 -0.919,-0.92 v -1.303 c -10e-4,-0.506 0.413,-0.92 0.919,-0.92 m 0.001,-1.416 v 0 0 c -1.289,0 -2.337,1.048 -2.337,2.336 v 1.303 c 0,1.288 1.048,2.336 2.336,2.336 h 2.539 c 1.288,0 2.336,-1.048 2.336,-2.336 v -1.301 c 0,-1.288 -1.048,-2.336 -2.336,-2.336 z"
               id="path159" />
          </g>
        </g>
        <line
           style="fill:#d3d3ea;stroke:#3a383d;stroke-width:2.6836;stroke-linecap:round;stroke-miterlimit:10"
           x1="341.586"
           y1="643.54901"
           x2="366.71899"
           y2="643.54901"
           id="line160" />
        <g
           id="g162">
          <g
             style="opacity:0.4"
             id="g161">
            <path
               d="m 360.507,646.452 c 0,0.896 -0.733,1.63 -1.63,1.629 l -3.668,-0.002 c -0.897,-10e-4 -1.63,-0.734 -1.63,-1.631 v -2.977 c 0,-0.896 0.733,-1.63 1.63,-1.629 h 3.668 c 0.897,10e-4 1.63,0.734 1.63,1.631 z"
               id="path160" />
          </g>
        </g>
        <g
           id="g164">
          <g
             id="g163">
            <path
               style="fill:#8cedf6;fill-opacity:1"
               d="m 354.393,645.69 c -0.897,0 -1.628,-0.73 -1.628,-1.628 v -1.303 c 0,-0.898 0.73,-1.628 1.628,-1.628 l 2.539,10e-4 c 0.897,0 1.627,0.73 1.627,1.628 v 1.302 c 0,0.898 -0.73,1.628 -1.628,1.628 z"
               id="path162" />
            <path
               style="fill:#575659"
               d="m 354.393,641.84 2.539,10e-4 c 0.506,0 0.919,0.414 0.919,0.92 v 1.302 c 0,0.506 -0.414,0.92 -0.919,0.92 h -2.539 c -0.506,0 -0.919,-0.414 -0.919,-0.92 v -1.303 c 0,-0.506 0.413,-0.92 0.919,-0.92 m 0.001,-1.416 v 0 c -1.289,0 -2.336,1.048 -2.336,2.336 v 1.303 c 0,1.288 1.048,2.336 2.336,2.336 h 2.539 c 1.288,0 2.336,-1.048 2.336,-2.336 v -1.302 c 0,-1.288 -1.048,-2.336 -2.336,-2.336 z"
               id="path163" />
          </g>
        </g>
        <path
           style="opacity:0.2"
           d="m 427.264,596.487 c -6.63,-10e-4 -12.025,5.394 -12.025,12.024 0,6.631 5.396,12.024 12.025,12.024 6.63,0 12.026,-5.393 12.026,-12.024 0,-6.629 -5.396,-12.024 -12.026,-12.024 z"
           id="path164" />
        <path
           style="fill:#3a383d"
           d="m 435.808,603.514 h 0.001 l -0.006,-0.018 c -0.005,-0.014 -0.009,-0.025 -0.014,-0.037 l -1.691,-4.19 -16.354,-10e-4 -1.625,4.198 c -0.002,0.01 -0.005,0.018 -0.009,0.027 l -0.006,0.02 v 0 c -0.295,0.959 -0.455,1.979 -0.455,3.035 0,5.691 4.614,10.306 10.308,10.307 5.691,0 10.306,-4.615 10.306,-10.307 -10e-4,-1.056 -0.161,-2.075 -0.455,-3.034 z"
           id="path165" />
        <path
           style="opacity:0.2;fill:#494874"
           d="m 435.809,603.514 -0.006,-0.018 c -0.005,-0.014 -0.009,-0.025 -0.014,-0.037 l -1.691,-4.19 h -8.142 v 17.586 c 5.691,0 10.306,-4.615 10.306,-10.307 0,-1.057 -0.16,-2.076 -0.454,-3.035 h 0.001 z"
           id="path166" />
        <g
           id="g169">
          <g
             id="g168">
            <path
               style="fill:#8cedf6;fill-opacity:1"
               d="m 425.956,609.456 c -4.126,0 -7.483,-3.357 -7.483,-7.482 0,-4.126 3.357,-7.482 7.483,-7.482 4.125,0 7.481,3.356 7.481,7.482 0,4.126 -3.356,7.482 -7.481,7.482 z"
               id="path167" />
            <path
               style="fill:#3a383d"
               d="m 425.956,595.656 c 3.483,0 6.316,2.835 6.316,6.318 0,3.483 -2.833,6.317 -6.316,6.317 -3.484,0 -6.318,-2.834 -6.318,-6.317 0,-3.483 2.834,-6.318 6.318,-6.318 m 0,-2.329 c -4.775,0 -8.647,3.872 -8.647,8.648 0,4.773 3.872,8.646 8.647,8.646 4.774,0 8.646,-3.871 8.646,-8.646 0,-4.775 -3.872,-8.648 -8.646,-8.648 z"
               id="path168" />
          </g>
        </g>
        <line
           style="opacity:0.6;fill:#d3d3ea;stroke:#3a383d;stroke-width:3.1746;stroke-linecap:round;stroke-miterlimit:10"
           x1="412.008"
           y1="602.92999"
           x2="412.008"
           y2="601.90997"
           id="line169" />
        <line
           style="opacity:0.6;fill:#d3d3ea;stroke:#3a383d;stroke-width:3.1746;stroke-linecap:round;stroke-miterlimit:10"
           x1="419.80301"
           y1="595.43402"
           x2="419.80301"
           y2="594.414"
           id="line170" />
        <line
           style="opacity:0.6;fill:#d3d3ea;stroke:#3a383d;stroke-width:3.1746;stroke-linecap:round;stroke-miterlimit:10"
           x1="432.77899"
           y1="595.25"
           x2="432.77899"
           y2="594.23199"
           id="line171" />
        <line
           style="opacity:0.6;fill:#d3d3ea;stroke:#3a383d;stroke-width:3.1746;stroke-linecap:round;stroke-miterlimit:10"
           x1="441.55899"
           y1="603.98297"
           x2="441.55899"
           y2="602.96301"
           id="line172" />
        <line
           style="opacity:0.6;fill:#d3d3ea;stroke:#3a383d;stroke-width:2.7586;stroke-miterlimit:10"
           x1="418.228"
           y1="579.41803"
           x2="433.26001"
           y2="579.41803"
           id="line173" />
        <line
           style="opacity:0.6;fill:#d3d3ea;stroke:#3a383d;stroke-width:2.7586;stroke-miterlimit:10"
           x1="419.14801"
           y1="620.53601"
           x2="434.17899"
           y2="620.53601"
           id="line174" />
        <line
           style="opacity:0.6;fill:#d3d3ea;stroke:#3a383d;stroke-width:2.7586;stroke-miterlimit:10"
           x1="274.70401"
           y1="648.953"
           x2="288.814"
           y2="648.953"
           id="line175" />
        <line
           style="opacity:0.6;fill:#d3d3ea;stroke:#3a383d;stroke-width:2.7586;stroke-miterlimit:10"
           x1="305.17499"
           y1="648.953"
           x2="319.28601"
           y2="648.953"
           id="line176" />
        <line
           style="opacity:0.6;fill:#d3d3ea;stroke:#3a383d;stroke-width:2.7586;stroke-miterlimit:10;stroke-dasharray:4.5977, 0.9195, 2.7586"
           x1="390.74799"
           y1="646.19397"
           x2="401.18201"
           y2="646.19397"
           id="line177" />
        <line
           style="opacity:0.6;fill:#d3d3ea;stroke:#3a383d;stroke-width:2.7586;stroke-miterlimit:10"
           x1="376.73199"
           y1="606.74298"
           x2="391.763"
           y2="606.74298"
           id="line178" />
        <line
           style="opacity:0.6;fill:#d3d3ea;stroke:#3a383d;stroke-width:2.7586;stroke-miterlimit:10"
           x1="376.95001"
           y1="573.85699"
           x2="391.98001"
           y2="573.85699"
           id="line179" />
        <line
           style="opacity:0.6;fill:#d3d3ea;stroke:#3a383d;stroke-width:2.7586;stroke-miterlimit:10;stroke-dasharray:4.5977, 0.9195, 2.7586"
           x1="406.38101"
           y1="646.19397"
           x2="416.81299"
           y2="646.19397"
           id="line180" />
        <line
           style="opacity:0.6;fill:#d3d3ea;stroke:#3a383d;stroke-width:2.7586;stroke-miterlimit:10;stroke-dasharray:4.5977, 0.9195, 2.7586"
           x1="422.93201"
           y1="646.19397"
           x2="433.36499"
           y2="646.19397"
           id="line181" />
      </g>
    </g>
  </g>
</svg>
